{
  "asset": { "version": "2.0", "generator": "manual-tower" },
  "scene": 0,
  "scenes": [{ "nodes": [0] }],
  "nodes": [{ "mesh": 0 }],
  "meshes": [{
    "primitives": [{
      "attributes": { "POSITION": 0, "NORMAL": 1 },
      "indices": 2,
      "material": 0
    }]
  }],
  "materials": [{
    "name": "towerMaterial",
    "pbrMetallicRoughness": {
      "baseColorFactor": [0.94, 0.92, 0.91, 1.0],
      "metallicFactor": 0.15,
      "roughnessFactor": 0.8
    },
    "doubleSided": false
  }],
  "buffers": [{
    "byteLength": 7500,
    "uri": "data:application/octet-stream;base64,"
  }],
  "bufferViews": [
    { "buffer": 0, "byteOffset": 0, "byteLength": 1000, "target": 34962 },
    { "buffer": 0, "byteOffset": 1000, "byteLength": 1000, "target": 34962 },
    { "buffer": 0, "byteOffset": 2000, "byteLength": 500, "target": 34963 }
  ],
  "accessors": [
    { "bufferView": 0, "componentType": 5126, "count": 10, "type": "VEC3", "min": [-0.9, 0.0, -0.9], "max": [0.9, 3.0, 0.9] },
    { "bufferView": 1, "componentType": 5126, "count": 10, "type": "VEC3" },
    { "bufferView": 2, "componentType": 5123, "count": 12, "type": "SCALAR" }
  ]
}
